<svg width="25" height="25" viewBox="0 0 25 25" fill="none" xmlns="http://www.w3.org/2000/svg">
<path d="M12.1208 23.3048C18.0854 23.3048 22.9208 18.4703 22.9208 12.5068C22.9208 6.54317 18.0854 1.70873 12.1208 1.70873C6.15608 1.70873 1.32075 6.54317 1.32075 12.5068C1.32075 18.4703 6.15608 23.3048 12.1208 23.3048Z" fill="#39333D"/>
<path d="M18.3236 19.0436C18.0644 19.2611 17.8052 19.4785 17.5289 19.6992C17.011 20.0819 16.4707 20.396 15.9023 20.6615C14.9653 21.0993 13.986 21.3872 12.9528 21.4734C11.5363 21.5914 10.1627 21.4017 8.83871 20.8832C7.82277 20.4854 6.90465 19.926 6.09473 19.1934C5.51375 18.6678 5.00948 18.077 4.57804 17.4224C4.1032 16.7019 3.74158 15.9279 3.49558 15.1034C3.10322 13.7885 3.01871 12.4482 3.22769 11.091C3.51795 9.20575 4.36276 7.59664 5.67525 6.22466C6.13602 5.743 6.65204 5.32622 7.2114 4.9624C7.79798 4.58087 8.41942 4.27179 9.077 4.03321C10.3083 3.58647 11.5764 3.43432 12.8791 3.53707C14.0949 3.63297 15.2391 3.97127 16.3157 4.53782C17.1792 4.99222 17.9588 5.56115 18.64 6.27761C18.8896 6.57544 19.1328 6.86461 19.3817 7.16186C19.5321 7.38831 19.6839 7.6023 19.8201 7.82578C20.3782 8.74136 20.7363 9.73478 20.955 10.7815C21.1809 11.8624 21.1702 12.9462 20.989 14.0314C20.8312 14.9763 20.5317 15.8747 20.0739 16.7176C19.6429 17.5113 19.1179 18.2366 18.4726 18.8721C18.4188 18.9251 18.3731 18.9862 18.3236 19.0436ZM17.4755 13.4667C17.6399 13.0591 17.7627 12.6406 17.8426 12.2074C18.0487 11.0892 17.8961 10.0128 17.4493 8.98116C17.1843 8.36926 16.8227 7.81242 16.3506 7.32953C16.0428 7.01477 15.7176 6.7221 15.3502 6.48459C14.0869 5.66794 12.7087 5.23453 11.1918 5.26482C10.2671 5.28328 9.38061 5.47259 8.52566 5.81697C8.31192 5.90306 8.10556 6.00921 7.90113 6.1163C7.68901 6.22742 7.4714 6.33405 7.27704 6.47202C6.63914 6.92481 6.08967 7.47091 5.63421 8.10762C4.75643 9.33469 4.28901 10.6993 4.2835 12.2114C4.27836 13.6198 4.62274 14.9427 5.28339 16.184C5.32107 16.2548 5.36692 16.3213 5.40897 16.3897C5.42039 16.3496 5.41082 16.32 5.39819 16.2918C5.33731 16.1558 5.26933 16.0226 5.21516 15.8839C4.72381 14.6262 4.59459 13.3276 4.82966 12.0006C5.09529 10.5012 5.72948 9.18811 6.86624 8.14107C7.29874 7.7427 7.76881 7.40314 8.29274 7.13578C8.77349 6.89046 9.27293 6.70015 9.79962 6.57977C10.8013 6.35084 11.7974 6.35797 12.7934 6.61656C13.5052 6.80136 14.1746 7.08039 14.7881 7.48408C15.0458 7.65372 15.2928 7.84264 15.5291 8.04131C16.0158 8.45049 16.4021 8.94659 16.7165 9.4969C17.0073 10.0059 17.2212 10.5464 17.3366 11.1238C17.5125 12.0043 17.4878 12.8793 17.2633 13.7491C17.246 13.816 17.2198 13.8807 17.1875 13.9766C17.2239 13.9461 17.2356 13.9408 17.2401 13.9318C17.3163 13.782 17.3916 13.6316 17.4755 13.4667ZM8.20654 16.3873C6.95961 14.8237 6.64513 13.0725 7.14351 11.1515C7.12345 11.1792 7.09262 11.2097 7.07609 11.2466C6.97219 11.4785 6.86079 11.7077 6.77167 11.9453C6.48643 12.7058 6.39421 13.4944 6.46323 14.3005C6.52194 14.9859 6.68845 15.6456 6.99623 16.2636C7.11584 16.5038 7.24012 16.7445 7.39082 16.9656C7.55019 17.1992 7.7424 17.4108 7.92232 17.6303C8.29908 18.09 8.76502 18.4449 9.26979 18.749C10.165 19.2883 11.1424 19.5855 12.1777 19.7028C13.0063 19.7966 13.823 19.7181 14.6316 19.5277C15.1425 19.4074 15.6402 19.2418 16.1092 19.0089C16.4671 18.8312 16.8346 18.6478 17.1409 18.3973C17.5422 18.0691 17.9163 17.6969 18.2514 17.3007C19.3841 15.9618 19.895 14.389 19.924 12.6504C19.9453 11.3727 19.6628 10.1642 19.0779 9.02831C18.9657 8.81044 18.8404 8.59928 18.7212 8.38503C18.7104 8.39035 18.6997 8.39565 18.6889 8.40096C18.7103 8.44981 18.7315 8.4988 18.7532 8.5475C18.8566 8.77885 18.9718 9.00568 19.0615 9.24222C19.4496 10.2656 19.6168 11.3241 19.4988 12.4158C19.3602 13.6992 18.9456 14.8822 18.1868 15.9415C17.8847 16.3632 17.5385 16.7408 17.1471 17.0706C16.6368 17.5005 16.0743 17.86 15.4415 18.0897C15.0925 18.2164 14.7425 18.3515 14.3817 18.4318C13.3735 18.6562 12.3662 18.6303 11.3646 18.3679C10.659 18.1832 10.0083 17.8777 9.4033 17.4801C8.9551 17.1855 8.55973 16.8238 8.20654 16.3873Z" fill="#5B3493"/>
<path d="M7.70855 12.3035C7.87017 12.9794 8.1126 13.5968 8.46252 14.2614C6.89984 13.4638 5.88365 9.51044 6.47006 6.84341C7.27157 3.19809 10.4577 0.581378 14.2229 0.510291C17.5198 0.448047 20.2906 2.57503 21.2118 4.66455C21.0698 4.7075 21.0115 4.58636 20.936 4.51457C18.7556 2.44096 16.2059 1.71068 13.3361 2.49781C9.12871 3.65185 6.73362 7.87353 7.70855 12.3035Z" fill="#A861CC"/>
<path d="M10.8158 16.3678C11.5025 16.4215 12.1591 16.3795 12.8934 16.2489C11.6591 17.5027 7.62045 17.2567 5.28895 15.8695C2.10224 13.9736 0.621505 10.1061 1.71805 6.46928C2.6782 3.28482 5.53833 1.28197 7.79162 1.04324C7.78818 1.19291 7.65605 1.21142 7.56507 1.26174C4.93769 2.71422 3.46175 4.93645 3.31652 7.93488C3.10363 12.3308 6.3409 15.9348 10.8158 16.3678Z" fill="#A861CC"/>
<path d="M15.6051 14.6405C15.8679 13.9978 16.0313 13.3545 16.1352 12.6092C16.935 14.1817 15.4552 17.983 13.4278 19.7927C10.6568 22.2663 6.55553 22.4927 3.46802 20.3161C0.764524 18.4103 -0.238612 15.0455 0.232776 12.8084C0.372724 12.858 0.349337 12.9905 0.368625 13.0934C0.925153 16.0647 2.56271 18.1684 5.34276 19.2344C9.41856 20.7972 13.8144 18.8029 15.6051 14.6405Z" fill="#A861CC"/>
<path d="M15.4578 9.50878C14.9335 9.05788 14.3779 8.70222 13.7078 8.37217C15.4365 8.09024 18.5605 10.6856 19.639 13.1912C21.1132 16.6159 20.0592 20.6234 17.0544 22.915C14.4234 24.9216 10.9433 24.8448 8.98136 23.701C9.0713 23.582 9.18898 23.6454 9.29187 23.6586C12.2632 24.0425 14.7512 23.1205 16.6146 20.7808C19.3465 17.3508 18.826 12.5142 15.4578 9.50878Z" fill="#A861CC"/>
<path d="M10.5775 8.06441C9.99064 8.42843 9.48384 8.85198 8.96584 9.39329C9.2344 7.64655 12.645 5.44929 15.3389 5.18812C19.021 4.83116 22.4708 7.08143 23.7013 10.6743C24.7788 13.8203 23.6311 17.1377 21.9471 18.6678C21.8628 18.5447 21.9589 18.4513 22.0032 18.3566C23.2831 15.6226 23.1832 12.949 21.5548 10.4371C19.1673 6.75434 14.4498 5.75948 10.5775 8.06441Z" fill="#A861CC"/>
</svg>
